<?xml version="1.0" standalone="no"?>
<!DOCTYPE svg PUBLIC "-//W3C//DTD SVG 20010904//EN"
 "http://www.w3.org/TR/2001/REC-SVG-20010904/DTD/svg10.dtd">
<svg version="1.0" xmlns="http://www.w3.org/2000/svg"
 width="300.000000pt" height="300.000000pt" viewBox="0 0 300.000000 300.000000"
 preserveAspectRatio="xMidYMid meet">

<g transform="translate(0.000000,300.000000) scale(0.100000,-0.100000)"
fill="#000000" stroke="none">
<path d="M504 2989 c-229 -39 -412 -202 -481 -429 -15 -49 -17 -139 -20 -830
-2 -426 0 -770 4 -764 17 26 194 115 264 134 21 6 39 16 39 22 0 6 2 9 5 7 2
-3 9 -66 15 -141 6 -76 18 -164 29 -197 18 -57 66 -151 77 -151 3 0 2 5 -1 10
-14 23 8 29 25 8 11 -13 4 7 -15 44 -20 36 -44 101 -55 144 -19 73 -20 111
-20 648 0 638 2 652 67 785 53 108 179 235 283 284 139 67 141 67 780 67 639
0 641 0 780 -67 106 -50 233 -177 283 -283 67 -139 67 -141 67 -780 0 -641 -1
-643 -68 -780 -54 -111 -170 -226 -282 -279 -142 -69 -162 -71 -720 -72 -465
-1 -600 -7 -510 -21 19 -3 114 -7 210 -7 96 -1 184 -4 195 -6 11 -2 34 -4 50
-4 l30 -1 3 -108 c1 -59 -2 -133 -6 -165 l-9 -58 491 3 491 3 78 27 c191 64
328 205 389 398 l23 75 0 995 0 995 -23 75 c-61 193 -196 333 -387 398 l-80
27 -975 1 c-536 1 -998 -2 -1026 -7z m2099 -181 c108 -51 184 -137 217 -247
20 -65 20 -87 18 -1051 l-3 -985 -33 -68 c-74 -150 -223 -239 -396 -236 l-41
0 51 18 c119 40 204 116 257 229 l32 67 3 904 c3 999 4 971 -61 1080 -41 68
-95 115 -177 155 l-65 31 -925 0 -925 0 -57 -27 c-101 -47 -190 -146 -224
-251 -14 -42 -14 -41 -11 43 3 68 9 95 30 139 55 108 130 178 232 213 46 16
120 17 1035 15 l985 -2 58 -27z m-2170 -2125 c-3 -7 -6 -13 -8 -13 -2 0 -5 6
-8 13 -3 8 1 14 8 14 7 0 11 -6 8 -14z"/>
<path d="M932 2419 c-130 -22 -248 -112 -309 -237 l-38 -76 -1 -510 c-1 -281
1 -496 3 -477 4 33 5 33 46 27 23 -3 65 -8 92 -11 62 -6 77 -9 90 -17 6 -3 30
-11 55 -18 25 -7 79 -28 120 -48 41 -19 81 -37 88 -38 8 -1 22 -10 31 -18 9
-9 42 -29 72 -46 30 -16 50 -30 46 -30 -5 0 -17 5 -28 11 -11 5 13 -23 53 -63
69 -69 146 -172 182 -245 l16 -32 -38 -4 c-20 -2 127 -4 328 -3 l365 1 67 32
c136 64 227 189 248 338 12 86 13 994 1 1087 -22 164 -126 295 -286 359 l-60
24 -545 2 c-300 0 -569 -3 -598 -8z m1243 -199 c62 -38 83 -126 45 -187 -25
-41 -68 -63 -124 -63 -84 0 -149 88 -126 170 11 37 44 78 75 90 36 16 97 11
130 -10z m-550 -145 c280 -59 482 -325 462 -610 -17 -242 -166 -435 -399 -516
-69 -24 -99 -29 -178 -29 -170 0 -305 54 -420 170 -230 229 -228 594 4 826
144 144 332 201 531 159z m-570 -1035 c10 -11 16 -20 13 -20 -3 0 -13 9 -23
20 -10 11 -16 20 -13 20 3 0 13 -9 23 -20z"/>
<path d="M1367 1846 c-72 -30 -120 -66 -159 -120 -64 -88 -87 -184 -69 -284
54 -292 398 -409 616 -211 191 175 143 490 -93 606 -47 23 -72 28 -147 31 -77
2 -99 -1 -148 -22z"/>
</g>
</svg>
